PathFileType	4	(X/Y/Z)	/Users/itak/Documents/Research/Walk-IL/dataset/trc/00540_00009.trc
DataRate	CameraRate	NumFrames	NumMarkers	Units	OrigDataRate	OrigDataStartFrame	OrigNumFrames
100.000000	100.000000	4	53	mm	100.000000	85	684
Frame#	Time	RPSI			LPSI			L3			STRN			T10			C7			CLAV			RBAK			LBAK			LSHO			LUPA			LAEL			LAOL			LWTS			LWPS			LFRA			LIFD			LHPS			LHTS			RSHO			RUPA			RAEL			RAOL			RWTS			RWPS			RFRA			RIFD			RHTS			RHPS			RBHD			LFHD			RFHD			LBHD			LHIP			RHIP			RASI			LASI			LKNE			LTHI			LANK			LTIP			LTOE			LMT1			LMT5			LHEE			RKNE			RTHI			RANK			RTIP			RTOE			RMT1			RMT5			RHEE			
		X1	Y1	Z1	X2	Y2	Z2	X3	Y3	Z3	X4	Y4	Z4	X5	Y5	Z5	X6	Y6	Z6	X7	Y7	Z7	X8	Y8	Z8	X9	Y9	Z9	X10	Y10	Z10	X11	Y11	Z11	X12	Y12	Z12	X13	Y13	Z13	X14	Y14	Z14	X15	Y15	Z15	X16	Y16	Z16	X17	Y17	Z17	X18	Y18	Z18	X19	Y19	Z19	X20	Y20	Z20	X21	Y21	Z21	X22	Y22	Z22	X23	Y23	Z23	X24	Y24	Z24	X25	Y25	Z25	X26	Y26	Z26	X27	Y27	Z27	X28	Y28	Z28	X29	Y29	Z29	X30	Y30	Z30	X31	Y31	Z31	X32	Y32	Z32	X33	Y33	Z33	X34	Y34	Z34	X35	Y35	Z35	X36	Y36	Z36	X37	Y37	Z37	X38	Y38	Z38	X39	Y39	Z39	X40	Y40	Z40	X41	Y41	Z41	X42	Y42	Z42	X43	Y43	Z43	X44	Y44	Z44	X45	Y45	Z45	X46	Y46	Z46	X47	Y47	Z47	X48	Y48	Z48	X49	Y49	Z49	X50	Y50	Z50	X51	Y51	Z51	X52	Y52	Z52	X53	Y53	Z53	

86	0.85	-730.1795043945312	1022.554138183594	431.04296875	-714.6534423828125	1025.8408203125	298.0685729980469	-715.4215087890625	1113.384643554688	361.4945373535156	-485.1536560058594	1295.777465820312	370.7174682617188	-727.9217529296875	1239.071166992188	360.4085998535156	-678.0841674804688	1511.278198242188	374.9512939453125	-503.6672668457031	1407.242919921875	370.3994140625	-752.7255249023438	1387.97802734375	459.7027893066406	-708.6137084960938	1459.435180664062	281.404296875	-606.4733276367188	1483.083740234375	204.0934600830078	-615.4241333007812	1357.52685546875	123.4128570556641	-594.6009521484375	1135.7841796875	101.8150329589844	-685.6873168945312	1127.943725585938	145.3323364257812	-505.6138610839844	893.0433349609375	156.7202606201172	-546.183349609375	869.2388916015625	82.46044921875	-571.2142944335938	1048.797241210938	97.41622924804688	-505.6322021484375	722.5790405273438	152.5131225585938	-536.9891967773438	809.6466674804688	91.97929382324219	-488.1839904785156	815.8435668945312	138.6701812744141	-623.0266723632812	1471.705200195312	531.6461791992188	-644.8282470703125	1407.651733398438	599.4075317382812	-656.9906005859375	1118.235107421875	645.4002075195312	-710.6372680664062	1101.54296875	616.5452270507812	-525.9992065429688	895.5708618164062	610.9012451171875	-572.3060913085938	876.4617919921875	676.2676391601562	-646.8978271484375	1063.741333007812	655.0826416015625	-517.0239868164062	722.651123046875	615.6293334960938	-498.9224853515625	803.9376220703125	627.3572387695312	-554.8099365234375	802.1115112304688	675.3355712890625	-616.847900390625	1688.02685546875	432.9932556152344	-441.8159790039062	1713.661254882812	323.8541870117188	-480.9223327636719	1714.902221679688	463.2738342285156	-563.8383178710938	1686.284423828125	275.8457336425781	-578.4188232421875	940.008544921875	179.8528900146484	-622.4388427734375	945.2722778320312	564.756103515625	-529.4205322265625	971.4417114257812	514.1173706054688	-504.9623107910156	961.2579956054688	238.6310882568359	-580.5088500976562	493.559326171875	237.463134765625	-569.0535888671875	659.04296875	201.4377899169922	-673.5900268554688	33.74907302856445	239.0841674804688	-651.8515625	251.9573059082031	229.3402099609375	-461.7932434082031	38.79276657104492	291.8957824707031	-533.205810546875	41.67578506469727	329.3124389648438	-551.5712280273438	35.23082733154297	222.8936614990234	-741.9457397460938	36.46601486206055	296.7027893066406	-609.0219116210938	499.7574157714844	541.114013671875	-590.9100341796875	790.8740844726562	571.1705322265625	-705.5592041015625	39.07183074951172	541.1707763671875	-614.8646240234375	357.1634521484375	536.5213623046875	-481.2343139648438	39.843017578125	523.9951782226562	-541.24462890625	40.33341979980469	476.6530456542969	-574.0655517578125	38.07151412963867	576.3853759765625	-753.8087768554688	32.13532257080078	478.2630310058594	
87	0.86	-730.0719604492188	1022.48779296875	429.9233703613281	-714.569091796875	1025.691528320312	296.9610595703125	-715.3181762695312	1113.464965820312	360.338134765625	-484.71142578125	1295.775390625	369.6031494140625	-727.5734252929688	1239.161987304688	359.1952514648438	-677.5482177734375	1511.328491210938	373.6975402832031	-503.1325073242188	1407.251220703125	369.317626953125	-752.3248291015625	1388.106689453125	458.4240417480469	-708.0526123046875	1459.5087890625	280.1264038085938	-605.788818359375	1483.077392578125	202.9097137451172	-614.67431640625	1357.56640625	122.1946487426758	-593.8056030273438	1135.831909179688	100.6605606079102	-685.0167236328125	1127.967895507812	144.0109405517578	-504.8072204589844	893.1680908203125	155.7645874023438	-545.2368774414062	869.309814453125	81.46961212158203	-570.4305419921875	1048.836059570312	96.31214141845703	-504.73876953125	722.6903076171875	151.6370086669922	-536.03173828125	809.7631225585938	91.02671051025391	-487.2812194824219	815.9581298828125	137.7967224121094	-622.6300659179688	1471.831909179688	530.4368286132812	-644.4849243164062	1407.725219726562	598.2080078125	-656.8956909179688	1118.3359375	644.2081909179688	-710.5149536132812	1101.671630859375	615.2972412109375	-526.078857421875	895.5513916015625	609.8859252929688	-572.4910888671875	876.4959716796875	675.2092895507812	-646.842041015625	1063.8203125	653.8648681640625	-517.2935180664062	722.6422119140625	614.6116943359375	-499.1280212402344	803.9307861328125	626.3461303710938	-555.0401611328125	802.1389770507812	674.283203125	-616.2296752929688	1688.110473632812	431.83056640625	-441.1250915527344	1713.580932617188	322.8056030273438	-480.3115844726562	1714.870727539062	462.2137756347656	-563.1547241210938	1686.319702148438	274.713623046875	-578.20751953125	939.9541625976562	178.8729095458984	-622.2607421875	945.3634643554688	563.6685791015625	-529.2545166015625	971.5556640625	513.0206909179688	-504.8871154785156	961.2698974609375	237.4969177246094	-580.2445678710938	493.447509765625	236.9196929931641	-568.8346557617188	658.9380493164062	200.693603515625	-673.58837890625	33.72726058959961	239.0546722412109	-651.5116577148438	251.8734741210938	228.9716033935547	-461.8132934570312	38.79632568359375	291.9276428222656	-533.2147216796875	41.65659713745117	329.3346252441406	-551.59228515625	35.22710800170898	222.9465637207031	-741.9157104492188	36.4326171875	296.6095275878906	-608.2174072265625	499.8350219726562	540.52734375	-590.4620361328125	791.0213623046875	570.2449951171875	-705.5346069335938	39.23843383789062	541.1298828125	-614.2240600585938	357.2017517089844	536.16845703125	-481.2004699707031	39.82392120361328	524.0144653320312	-541.1550903320312	40.34519577026367	476.605224609375	-574.0436401367188	38.05592727661133	576.4159545898438	-753.8231811523438	32.30061721801758	478.2607727050781	
88	0.87	-729.9781494140625	1022.425476074219	428.7881469726562	-714.5068359375	1025.551025390625	295.8451232910156	-715.216064453125	1113.5595703125	359.1506652832031	-484.2644653320312	1295.773681640625	368.4646606445312	-727.2180786132812	1239.260009765625	357.9631042480469	-677.0001220703125	1511.381591796875	372.4367980957031	-502.5933227539062	1407.262451171875	368.2144165039062	-751.9181518554688	1388.238159179688	457.1348266601562	-707.49169921875	1459.58251953125	278.8351745605469	-605.1091918945312	1483.072143554688	201.7192077636719	-613.90185546875	1357.612670898438	120.9680557250977	-592.9993896484375	1135.883422851562	99.48993682861328	-684.3378295898438	1128.001708984375	142.672119140625	-504.0014038085938	893.2918701171875	154.7874755859375	-544.2775268554688	869.3883666992188	80.45366668701172	-569.6504516601562	1048.889404296875	95.18424224853516	-503.8837585449219	722.8017578125	150.7806243896484	-535.0733642578125	809.8848876953125	90.05220794677734	-486.3628845214844	816.079833984375	136.9031066894531	-622.22216796875	1471.951293945312	529.2146606445312	-644.1260375976562	1407.792602539062	596.9938354492188	-656.78369140625	1118.445556640625	642.9940795898438	-710.3663330078125	1101.801025390625	614.0261840820312	-526.1681518554688	895.5084838867188	608.8615112304688	-572.670166015625	876.5198974609375	674.125732421875	-646.7492065429688	1063.889404296875	652.6392822265625	-517.5867309570312	722.620361328125	613.581787109375	-499.327392578125	803.9074096679688	625.30078125	-555.2936401367188	802.1713256835938	673.22802734375	-615.611572265625	1688.195434570312	430.6556396484375	-440.4464721679688	1713.512817382812	321.7228698730469	-479.6962280273438	1714.861694335938	461.1250610351562	-562.4852294921875	1686.355834960938	273.5646362304688	-577.9959106445312	939.9031372070312	177.8546905517578	-622.08056640625	945.4650268554688	562.5591430664062	-529.0850219726562	971.6583251953125	511.8913879394531	-504.8498840332031	961.2744750976562	236.3404388427734	-579.9996337890625	493.3622131347656	236.3538513183594	-568.6625366210938	658.8319702148438	199.9245452880859	-673.5877075195312	33.70387268066406	239.022216796875	-651.16357421875	251.7978210449219	228.5988311767578	-461.833251953125	38.79971313476562	291.9563598632812	-533.225341796875	41.63898468017578	329.3563842773438	-551.6061401367188	35.22465896606445	222.990234375	-741.8792724609375	36.39416122436523	296.510009765625	-607.40380859375	499.920166015625	539.9246215820312	-590.0380249023438	791.1708984375	569.3098754882812	-705.5045776367188	39.4079475402832	541.0877075195312	-613.5819702148438	357.2432250976562	535.80859375	-481.1653442382812	39.80559921264648	524.0364990234375	-541.0680541992188	40.35654830932617	476.560302734375	-574.01611328125	38.04317855834961	576.4354248046875	-753.831787109375	32.48046875	478.2691345214844	
89	0.88	-729.9019775390625	1022.367370605469	427.6402282714844	-714.46826171875	1025.420776367188	294.7201843261719	-715.1199340820312	1113.670043945312	357.9357299804688	-483.8132934570312	1295.769775390625	367.3039855957031	-726.8582763671875	1239.368286132812	356.7091674804688	-676.4408569335938	1511.4375	371.1695556640625	-502.0551147460938	1407.273071289062	367.0917663574219	-751.5038452148438	1388.37158203125	455.8374938964844	-706.928955078125	1459.65673828125	277.5299377441406	-604.4327392578125	1483.073852539062	200.5194702148438	-613.109619140625	1357.669921875	119.7343368530273	-592.1871337890625	1135.938598632812	98.30339050292969	-683.64990234375	1128.044921875	141.3144836425781	-503.2029113769531	893.4141845703125	153.7951812744141	-543.3017578125	869.475341796875	79.41452026367188	-568.8718872070312	1048.954345703125	94.03459167480469	-503.0581970214844	722.9104614257812	149.9325408935547	-534.1144409179688	810.0093383789062	89.0555419921875	-485.4439697265625	816.2093505859375	135.9818878173828	-621.8001098632812	1472.053955078125	527.98291015625	-643.7549438476562	1407.85595703125	595.7630615234375	-656.6602172851562	1118.561157226562	641.7645263671875	-710.2012939453125	1101.932006835938	612.7402954101562	-526.2692260742188	895.4386596679688	607.8310546875	-572.8377685546875	876.532958984375	673.0160522460938	-646.6317138671875	1063.953247070312	651.40380859375	-517.89892578125	722.5819702148438	612.5392456054688	-499.5144348144531	803.8613891601562	624.22265625	-555.5636596679688	802.2042846679688	672.1676025390625	-614.991943359375	1688.280151367188	429.4720153808594	-439.7816162109375	1713.455200195312	320.6077880859375	-479.0779418945312	1714.872924804688	460.0067443847656	-561.8306274414062	1686.390991210938	272.4005737304688	-577.7841796875	939.8528442382812	176.7890930175781	-621.8888549804688	945.572509765625	561.419921875	-528.9094848632812	971.7525024414062	510.7261657714844	-504.8433227539062	961.2709350585938	235.1598205566406	-579.7642211914062	493.3089904785156	235.7642364501953	-568.5339965820312	658.7265014648438	199.1295776367188	-673.5892333984375	33.67810440063477	238.9871215820312	-650.8325805664062	251.7221832275391	228.2386932373047	-461.8523559570312	38.80348587036133	291.9833068847656	-533.23583984375	41.62195587158203	329.3775024414062	-551.6089477539062	35.22701263427734	223.0228729248047	-741.8418579101562	36.35480499267578	296.4077758789062	-606.58544921875	500.015380859375	539.3092651367188	-589.6404418945312	791.3217163085938	568.3658447265625	-705.4658203125	39.5753173828125	541.0428466796875	-612.9296875	357.2884521484375	535.4368286132812	-481.1273498535156	39.78828811645508	524.060302734375	-540.98974609375	40.36623001098633	476.52294921875	-573.9820556640625	38.03437423706055	576.4415283203125	-753.82958984375	32.67374038696289	478.2859191894531	
